<svg id="Layer_1" data-name="Layer 1" xmlns="http://www.w3.org/2000/svg" viewBox="0 0 143.31 55.8"><defs><style>.cls-1{isolation:isolate;}</style></defs><g className="cls-1"><path d="M179.32,88.45c4.42,1.84,6.8,5.72,6.8,10.62,0,8.37-5.58,14.09-15.11,14.09H148.89V65.58h20.22c8.71,0,15,5.17,15,14.09A10.4,10.4,0,0,1,179.32,88.45ZM159,74.29V85.11h9.33c3.47,0,5.65-1.9,5.72-5.1.06-3.47-2.18-5.72-5.72-5.72Zm0,19.13v10.89h11.3c3.47,0,5.51-2,5.72-5.24a5.43,5.43,0,0,0-2.11-4.7,6.75,6.75,0,0,0-4.09-1Z" transform="translate(-148.89 -65.2)"/></g><g className="cls-1"><path d="M206.57,97.67H213a4.38,4.38,0,0,1,2.7.91,2.45,2.45,0,0,1,1.22,1.87,1.46,1.46,0,0,1-.44,1.07,1.5,1.5,0,0,1-1.07.44,1.81,1.81,0,0,1-1.2-.63,1.81,1.81,0,0,0-1.24-.64h-6.36a.87.87,0,0,0-.64.26,1,1,0,0,0-.24.69.67.67,0,0,0,.16.41,1,1,0,0,0,.38.31l8.18,3.48a4.73,4.73,0,0,1,2.05,1.72,4.42,4.42,0,0,1,.76,2.54,4.63,4.63,0,0,1-4.57,4.57h-5.94a5.28,5.28,0,0,1-3-.92c-.93-.62-1.39-1.24-1.39-1.86a1.46,1.46,0,0,1,.43-1,1.35,1.35,0,0,1,1-.46,2.55,2.55,0,0,1,1.34.63,2.66,2.66,0,0,0,1.55.63h5.94a1.51,1.51,0,0,0,1.08-.45,1.55,1.55,0,0,0,.2-2,1.36,1.36,0,0,0-.72-.57l-8.12-3.54a3.89,3.89,0,0,1-1.78-1.44,3.88,3.88,0,0,1,3.26-6Z" transform="translate(-148.89 -65.2)"/><path d="M227.62,93v7.14l2.2-1.45.18-.12a4.78,4.78,0,0,1,2.7-.93h1.9a4.3,4.3,0,0,1,3.14,1.27,4.5,4.5,0,0,1,1.36,3.19l.37,10.82V113a1.7,1.7,0,0,1-.42,1.17,1.31,1.31,0,0,1-1,.48,1.51,1.51,0,0,1-1.12-.44,1.75,1.75,0,0,1-.46-1.18l-.37-10.92a1.47,1.47,0,0,0-.45-1,1.41,1.41,0,0,0-1-.41h-1.93a1.21,1.21,0,0,0-.48.09,4,4,0,0,0-.61.35l-4,2.67V113a1.76,1.76,0,0,1-.42,1.22,1.49,1.49,0,0,1-2.18,0,1.75,1.75,0,0,1-.42-1.21V93A1.77,1.77,0,0,1,225,91.8a1.41,1.41,0,0,1,1.1-.46,1.37,1.37,0,0,1,1.08.48A1.71,1.71,0,0,1,227.62,93Z" transform="translate(-148.89 -65.2)"/><path d="M252.62,97.67H256a4.36,4.36,0,0,1,1.5.27,4.72,4.72,0,0,1,1.38.78l1.3,1a4.35,4.35,0,0,1,1.18,1.55,4.48,4.48,0,0,1,.44,1.91v5.91a4.47,4.47,0,0,1-1.62,3.41l-1.3,1.09a5.19,5.19,0,0,1-1.38.77,4.36,4.36,0,0,1-1.5.27h-3.34a4.21,4.21,0,0,1-1.48-.27,4.94,4.94,0,0,1-1.37-.77l-1.3-1.09a4.25,4.25,0,0,1-1.18-1.53,4.32,4.32,0,0,1-.44-1.88v-5.91a4.48,4.48,0,0,1,.44-1.91,4.24,4.24,0,0,1,1.18-1.55l1.3-1a5,5,0,0,1,1.37-.79A4.44,4.44,0,0,1,252.62,97.67Zm0,3a1.14,1.14,0,0,0-.47.1,1.94,1.94,0,0,0-.48.27l-1.29,1.07a1.5,1.5,0,0,0-.39.5,1.41,1.41,0,0,0-.15.62v5.91a1.38,1.38,0,0,0,.15.62,1.46,1.46,0,0,0,.39.49l1.3,1.09a2,2,0,0,0,.45.24,1.61,1.61,0,0,0,.49.07H256a1.4,1.4,0,0,0,.49-.08,1.58,1.58,0,0,0,.46-.25l1.28-1.07a1.39,1.39,0,0,0,.39-.49,1.33,1.33,0,0,0,.16-.62v-5.91a1.41,1.41,0,0,0-.15-.62,1.33,1.33,0,0,0-.38-.48L256.89,101a1.84,1.84,0,0,0-.46-.27,1.17,1.17,0,0,0-.47-.1Z" transform="translate(-148.89 -65.2)"/><path d="M272.13,98.72v.62l.72-.72a5.68,5.68,0,0,1,1.64-1.2,4,4,0,0,1,1.74-.4H277a4,4,0,0,1,1.48.3,5,5,0,0,1,1.4.82l2.5,2.1a4.62,4.62,0,0,1,1.18,1.53,4.38,4.38,0,0,1,.44,1.88v5a4.43,4.43,0,0,1-.44,1.89,4.62,4.62,0,0,1-1.18,1.53l-2.57,2.11a4.3,4.3,0,0,1-1.34.8,4.2,4.2,0,0,1-1.54.29h-.69a4.14,4.14,0,0,1-1.76-.39,5.92,5.92,0,0,1-1.65-1.19l-.72-.72v6.33a1.76,1.76,0,0,1-.42,1.22,1.49,1.49,0,0,1-2.18,0,1.75,1.75,0,0,1-.42-1.21V98.72a1.81,1.81,0,0,1,.41-1.23,1.37,1.37,0,0,1,1.1-.47,1.4,1.4,0,0,1,1.08.48A1.77,1.77,0,0,1,272.13,98.72Zm4.1,1.38a1.42,1.42,0,0,0-.53.1,1.36,1.36,0,0,0-.47.32l-2.71,2.67a1.16,1.16,0,0,0-.29.46,1.54,1.54,0,0,0-.1.58v3.85a1.55,1.55,0,0,0,.1.59,1.32,1.32,0,0,0,.29.46l2.71,2.66a1.82,1.82,0,0,0,.48.34,1.14,1.14,0,0,0,.52.13h.68a1.54,1.54,0,0,0,.57-.12,2.07,2.07,0,0,0,.52-.32l2.52-2.13a1.09,1.09,0,0,0,.3-.44,1.53,1.53,0,0,0,.14-.59v-5a1.62,1.62,0,0,0-.14-.61,1.16,1.16,0,0,0-.3-.47L278,100.45a1.42,1.42,0,0,0-.48-.27,2.25,2.25,0,0,0-.61-.08Z" transform="translate(-148.89 -65.2)"/></g><path d="M196.1,106.2v4.4h-4.4v-4.4h4.4m2.6-2.6h-9.6v9.6h9.6v-9.6Z" transform="translate(-148.89 -65.2)"/><rect x="137.91" width="5.4" height="47.9"/></svg>